# xmcd CD database file
#
# Track frame offsets:
#	150
#	12065
#	30395
#	44185
#	55422
#	70075
#	82847
#	99897
#	110272
#	126842
#
# Disc length: 1901 seconds
#
# Revision: 1
# Processed by: cddbd v1.4PL0 Copyright (c) Steve Scherf et al.
# Submitted via: CDex 1.50
#
DISCID=75076b0a
DTITLE=Wylie and the Wild West - Cattle Call - Songs of the Wild West
DYEAR=1996
DGENRE=Country
TTITLE0=Don't Fence Me In
TTITLE1=Cattle Call
TTITLE2=Red River Valley
TTITLE3=The Lilac Bush
TTITLE4=Room To Roam
TTITLE5=I'm An Old Cowhand
TTITLE6=Cool Water
TTITLE7=Ragtime Cow Boy Joe
TTITLE8=Ridin' Down the Canyon
TTITLE9=Bad Brahma Bull
EXTD=YEAR: 1996
EXTT0=
EXTT1=
EXTT2=
EXTT3=
EXTT4=
EXTT5=
EXTT6=
EXTT7=
EXTT8=
EXTT9=
PLAYORDER=
